<svg xmlns="http://www.w3.org/2000/svg" width="25" height="25" viewBox="0 0 25 25" fill="#fff"><path d="M9.07153 19.6425C9.0713 17.5913 7.40789 15.9286 5.35669 15.9286C3.30568 15.9288 1.64306 17.5914 1.64282 19.6425C1.64282 21.6936 3.30555 23.3571 5.35669 23.3573C7.40803 23.3573 9.07153 21.6938 9.07153 19.6425ZM10.5715 19.6425C10.5715 22.5222 8.23647 24.8573 5.35669 24.8573C2.4771 24.8571 0.142822 22.522 0.142822 19.6425C0.143056 16.763 2.47726 14.4288 5.35669 14.4286C8.23632 14.4286 10.5713 16.7629 10.5715 19.6425Z"></path><path d="M9.07093 5.35742V2.67871C9.07093 2.40408 8.96234 2.1405 8.76819 1.94629C8.57399 1.75208 8.31041 1.64261 8.03577 1.64258H5.91468C5.67098 1.63819 5.43319 1.71963 5.24378 1.87305C5.07788 2.00742 4.95831 2.18967 4.90003 2.39355L4.87952 2.48145L1.71839 18.8916C1.64006 19.2983 1.24712 19.5645 0.84046 19.4863C0.433791 19.408 0.167526 19.0151 0.245733 18.6084L3.40589 2.19727H3.40687C3.52018 1.61122 3.83657 1.08372 4.30042 0.708008C4.76065 0.335298 5.33646 0.136001 5.92835 0.143555L8.03577 0.142578C8.70824 0.142614 9.35323 0.410233 9.82874 0.885742C10.3042 1.36126 10.5709 2.00626 10.5709 2.67871V5.35742C10.5708 5.77151 10.2351 6.10742 9.82093 6.10742C9.40699 6.1072 9.07107 5.77138 9.07093 5.35742Z"></path><path d="M16.9644 9.07147C17.3785 9.07155 17.7144 9.40731 17.7144 9.82147C17.7144 10.2356 17.3785 10.5714 16.9644 10.5715H8.03564C7.62143 10.5715 7.28564 10.2357 7.28564 9.82147C7.28564 9.40726 7.62143 9.07147 8.03564 9.07147H16.9644Z"></path><path d="M9.07141 19.6431V14.2857C9.07141 13.8715 9.4072 13.5357 9.82141 13.5357C10.2356 13.5357 10.5714 13.8715 10.5714 14.2857V19.6431C10.5712 20.0572 10.2355 20.3931 9.82141 20.3931C9.40731 20.3931 9.07159 20.0572 9.07141 19.6431Z"></path><path d="M23.3573 19.6425C23.3571 17.5913 21.6936 15.9286 19.6425 15.9286C17.5914 15.9288 15.9288 17.5914 15.9286 19.6425C15.9286 21.6936 17.5913 23.3571 19.6425 23.3573C21.6938 23.3573 23.3573 21.6938 23.3573 19.6425ZM24.8573 19.6425C24.8573 22.5222 22.5222 24.8573 19.6425 24.8573C16.7628 24.8571 14.4286 22.522 14.4286 19.6425C14.4288 16.763 16.763 14.4288 19.6425 14.4286C22.522 14.4286 24.8571 16.7628 24.8573 19.6425Z"></path><path d="M14.4286 5.35742V2.67871C14.4286 2.00624 14.6962 1.36131 15.1718 0.885742C15.6473 0.410306 16.2923 0.142578 16.9647 0.142578H19.0712V0.143555C19.6633 0.135915 20.2397 0.335167 20.7001 0.708008C21.1636 1.08353 21.4802 1.61045 21.5936 2.19629L24.7899 18.6064C24.8691 19.013 24.6037 19.4071 24.1972 19.4863C23.7906 19.5655 23.3965 19.3001 23.3173 18.8936L20.121 2.48242V2.48145C20.0747 2.24222 19.9452 2.02652 19.7558 1.87305C19.5663 1.7197 19.3285 1.63815 19.0849 1.64258H16.9647C16.6901 1.64258 16.4266 1.75215 16.2323 1.94629C16.0381 2.14048 15.9286 2.40398 15.9286 2.67871V5.35742C15.9285 5.77151 15.5927 6.10742 15.1786 6.10742C14.7645 6.10742 14.4287 5.77151 14.4286 5.35742Z"></path><path d="M14.4286 19.6431V14.2857C14.4286 13.8715 14.7644 13.5357 15.1786 13.5357C15.5928 13.5357 15.9286 13.8715 15.9286 14.2857V19.6431C15.9284 20.0572 15.5927 20.3931 15.1786 20.3931C14.7645 20.3931 14.4288 20.0572 14.4286 19.6431Z"></path></svg>