<svg xmlns="http://www.w3.org/2000/svg" width="25" height="25" viewBox="0 0 25 25" fill="white"><path d="M0.142883 22.3217V6.25042C0.142883 5.57791 0.410499 4.93299 0.886047 4.45745C1.36158 3.98191 2.00651 3.71429 2.67902 3.71429C3.09304 3.71451 3.42902 4.05021 3.42902 4.46429C3.42902 4.87836 3.09304 5.21406 2.67902 5.21429C2.40433 5.21429 2.14082 5.32377 1.94659 5.518C1.75237 5.71222 1.64288 5.97573 1.64288 6.25042V22.3217C1.64297 22.5963 1.75242 22.86 1.94659 23.0541C2.14083 23.2482 2.40456 23.3569 2.67902 23.3569H22.3216C22.5962 23.3568 22.8599 23.2483 23.054 23.0541C23.2482 22.8599 23.3567 22.5962 23.3568 22.3217V6.25042C23.3568 5.97593 23.2481 5.71224 23.054 5.518C22.8599 5.32386 22.5963 5.21431 22.3216 5.21429H18.7503C18.3361 5.21429 18.0003 4.8785 18.0003 4.46429C18.0003 4.05007 18.3361 3.71429 18.7503 3.71429H22.3216C22.9941 3.71431 23.6391 3.98185 24.1146 4.45745C24.5899 4.93291 24.8568 5.57799 24.8568 6.25042V22.3217C24.8567 22.9942 24.59 23.6393 24.1146 24.1147C23.6392 24.5902 22.9941 24.8568 22.3216 24.8569H2.67902C2.00662 24.8569 1.3615 24.59 0.886047 24.1147C0.410589 23.6392 0.142966 22.9941 0.142883 22.3217Z"></path><path d="M5.5 8.03546V0.892883C5.5 0.47867 5.83579 0.142883 6.25 0.142883C6.66421 0.142883 7 0.47867 7 0.892883V8.03546C7 8.44967 6.66421 8.78546 6.25 8.78546C5.83579 8.78546 5.5 8.44967 5.5 8.03546Z"></path><path d="M18 8.03546V0.892883C18 0.47867 18.3358 0.142883 18.75 0.142883C19.1642 0.142883 19.5 0.47867 19.5 0.892883V8.03546C19.5 8.44967 19.1642 8.78546 18.75 8.78546C18.3358 8.78546 18 8.44967 18 8.03546Z"></path><path d="M15.1787 3.71429C15.5929 3.71435 15.9287 4.05011 15.9287 4.46429C15.9287 4.87846 15.5929 5.21423 15.1787 5.21429H6.25C5.83579 5.21429 5.5 4.8785 5.5 4.46429C5.5 4.05007 5.83579 3.71429 6.25 3.71429H15.1787Z"></path><path d="M17.1068 14.2855C17.1066 13.2768 16.4308 12.4537 15.6331 12.2142C15.248 12.0986 14.8318 12.1169 14.4261 12.3196C14.0162 12.5246 13.5621 12.9463 13.1712 13.7279C13.0442 13.9819 12.7843 14.1428 12.5003 14.1429C12.2162 14.1429 11.9565 13.9819 11.8294 13.7279C11.4386 12.9463 10.9844 12.5246 10.5745 12.3196C10.1688 12.1168 9.7527 12.0986 9.36749 12.2142C8.56962 12.4535 7.89299 13.2766 7.89288 14.2855C7.89288 15.6731 8.94364 16.8173 10.2376 17.68C10.8615 18.0959 11.4908 18.4107 11.9671 18.6224C12.1832 18.7184 12.3661 18.7927 12.4993 18.8441C12.6327 18.7926 12.8158 18.7187 13.0325 18.6224C13.5089 18.4106 14.1389 18.0961 14.763 17.68C16.057 16.8173 17.1068 15.673 17.1068 14.2855ZM18.6068 14.2855C18.6068 16.4693 16.9796 18.005 15.595 18.928C14.88 19.4047 14.1699 19.7588 13.6419 19.9935C13.3769 20.1113 13.1548 20.2001 12.9974 20.2601C12.9188 20.29 12.856 20.3127 12.8118 20.3284C12.7897 20.3363 12.7716 20.3427 12.7591 20.347C12.753 20.3491 12.7481 20.3506 12.7444 20.3519C12.7426 20.3525 12.7408 20.3534 12.7396 20.3538H12.7376V20.3548C12.5838 20.4061 12.4169 20.406 12.263 20.3548L12.5003 19.6429L12.262 20.3538H12.2601C12.2589 20.3534 12.257 20.3525 12.2552 20.3519C12.2515 20.3506 12.2466 20.3491 12.2405 20.347C12.2281 20.3427 12.2108 20.3363 12.1888 20.3284C12.1447 20.3128 12.0818 20.29 12.0032 20.2601C11.8459 20.2001 11.6237 20.1112 11.3587 19.9935C10.8307 19.7588 10.1206 19.4047 9.40558 18.928C8.02099 18.005 6.39288 16.4694 6.39288 14.2855C6.39299 12.6163 7.50197 11.2081 8.93585 10.7777C9.66668 10.5584 10.4793 10.5948 11.2454 10.9779C11.7048 11.2076 12.1258 11.5533 12.4993 12.0101C12.8731 11.5529 13.2955 11.2077 13.7552 10.9779C14.5212 10.5949 15.333 10.5584 16.0638 10.7777C17.4979 11.2079 18.6066 12.6161 18.6068 14.2855Z"></path></svg>