<svg xmlns="http://www.w3.org/2000/svg" width="30" height="30" viewBox="0 0 30 30" fill="white"><path d="M19.6075 8.57129C19.6074 7.80213 18.9831 7.17871 18.214 7.17871C17.4449 7.17888 16.8215 7.80228 16.8214 8.57129C16.8214 9.34041 17.4448 9.96467 18.214 9.96484C18.9832 9.96484 19.6075 9.34057 19.6075 8.57129ZM21.1075 8.57129C21.1075 10.169 19.8117 11.4648 18.214 11.4648C16.6164 11.4647 15.3214 10.1689 15.3214 8.57129C15.3215 6.97383 16.6165 5.67888 18.214 5.67871C19.8116 5.67871 21.1074 6.97377 21.1075 8.57129Z"></path><path d="M9.96401 20.3572C9.96395 20.1798 9.82024 20.0359 9.64272 20.0359C9.4653 20.036 9.32149 20.1798 9.32143 20.3572C9.32143 20.5347 9.46521 20.6784 9.64272 20.6785C9.82032 20.6785 9.96401 20.5347 9.96401 20.3572ZM11.464 20.3572C11.464 21.3633 10.6486 22.1785 9.64272 22.1785C8.63689 22.1784 7.82143 21.3632 7.82143 20.3572C7.82149 19.3514 8.63688 18.536 9.64272 18.5359C10.6486 18.5359 11.4639 19.3513 11.464 20.3572Z"></path><path d="M11.0361 11.7856C11.036 11.0166 10.4117 10.3931 9.64258 10.3931C8.87354 10.3932 8.25014 11.0167 8.25 11.7856C8.25 12.5549 8.87346 13.1791 9.64258 13.1792C10.4118 13.1792 11.0361 12.5549 11.0361 11.7856ZM12.5361 11.7856C12.5361 13.3833 11.2402 14.6792 9.64258 14.6792C8.04501 14.6791 6.75 13.3833 6.75 11.7856C6.75014 10.1882 8.04511 8.89322 9.64258 8.89307C11.2402 8.89307 12.536 10.1882 12.5361 11.7856Z"></path><path d="M9.44804 1.53149C11.9166 0.461796 14.6318 0.091464 17.2967 0.460205C19.9617 0.829028 22.4742 1.92338 24.5594 3.62329C26.6445 5.32312 28.2226 7.56316 29.1209 10.0989C29.3914 10.8598 29.4754 11.675 29.365 12.4749C29.2545 13.2748 28.9526 14.0365 28.4861 14.6956C28.0196 15.3544 27.4012 15.8919 26.6834 16.262C25.9664 16.6315 25.171 16.8226 24.3641 16.8206V16.8215H20.3553C19.5136 16.8192 18.698 17.1166 18.0564 17.6614C17.4149 18.2062 16.9895 18.9624 16.8553 19.7932C16.7211 20.624 16.8876 21.4755 17.325 22.1946C17.7625 22.9136 18.4415 23.4532 19.241 23.7161C19.2501 23.719 19.2594 23.7225 19.2684 23.7258C19.7953 23.9216 20.2538 24.267 20.5877 24.719C20.9215 25.1711 21.117 25.7107 21.1492 26.2717H21.1482C21.2149 26.8922 21.0641 27.5174 20.7185 28.0383C20.3635 28.5733 19.8283 28.9636 19.2098 29.137L19.2088 29.136C17.9302 29.4991 16.6072 29.6815 15.2781 29.678H15.2771L15.2762 29.679V29.678C12.5864 29.6763 9.94863 28.9361 7.65116 27.5374C5.35334 26.1383 3.48409 24.1348 2.24784 21.7454C1.01156 19.3558 0.455985 16.6725 0.641399 13.9885C0.826865 11.3045 1.74638 8.72244 3.2996 6.52563C4.85277 4.32905 6.97962 2.60122 9.44804 1.53149ZM17.0916 1.94556C14.699 1.61441 12.2611 1.948 10.0447 2.90845C7.82849 3.86889 5.91866 5.41964 4.52421 7.39185C3.12971 9.36416 2.30401 11.6823 2.13749 14.092C1.97106 16.5016 2.46999 18.9106 3.57988 21.0559C4.68981 23.2012 6.36835 25 8.43144 26.2561C10.4947 27.5122 12.8636 28.1778 15.2791 28.179H15.281C16.4715 28.1822 17.6565 28.0181 18.8016 27.6926H18.8045C19.0767 27.6164 19.3122 27.4439 19.4685 27.2083C19.6247 26.9727 19.6917 26.6888 19.656 26.4084C19.6539 26.3916 19.6521 26.3746 19.6512 26.3577C19.6356 26.0874 19.5414 25.8273 19.3807 25.6096C19.2198 25.392 18.9993 25.2262 18.7459 25.1321V25.1311C17.619 24.7535 16.6609 23.9907 16.0428 22.9749C15.4198 21.9508 15.1826 20.7374 15.3738 19.554C15.565 18.3707 16.1722 17.2946 17.0857 16.5188L17.2605 16.3772C18.1448 15.6918 19.2342 15.3189 20.3572 15.3215H24.366C24.9329 15.3232 25.4928 15.1878 25.9969 14.928C26.5006 14.6682 26.9349 14.291 27.2625 13.8284C27.5899 13.3657 27.8011 12.8312 27.8787 12.2698C27.9465 11.7781 27.9098 11.2782 27.7723 10.803L27.7078 10.6008C26.9014 8.32392 25.4843 6.31169 23.6121 4.7854C21.74 3.25918 19.4842 2.2767 17.0916 1.94556Z"></path></svg>