<svg xmlns="http://www.w3.org/2000/svg" width="25" height="25" viewBox="0 0 25 25" fill="#fff"><path d="M23.2139 2.53613C23.2139 1.9642 22.7507 1.5001 22.1787 1.5H2.53613C1.96413 1.5 1.5 1.96412 1.5 2.53613V22.1787L1.50488 22.2842C1.55778 22.8066 1.99977 23.2139 2.53613 23.2139H22.1787C22.7507 23.2138 23.2138 22.7505 23.2139 22.1787V2.53613ZM24.7139 22.1787C24.7138 23.579 23.5791 24.7138 22.1787 24.7139H2.53613C1.22311 24.7139 0.142392 23.7163 0.0126953 22.4375L0 22.1787V2.53613C0 1.13569 1.1357 0 2.53613 0H22.1787C23.5791 9.58545e-05 24.7139 1.13572 24.7139 2.53613V22.1787Z"></path><path d="M10.2227 10.516C10.3932 10.5062 10.5637 10.5269 10.7256 10.5785L10.8848 10.641L10.9453 10.6713L16.873 14.0824C16.8797 14.0863 16.8871 14.0902 16.8936 14.0942C17.047 14.1888 17.1803 14.3121 17.2871 14.4565L17.3848 14.6069V14.6078C17.5018 14.8177 17.5635 15.0545 17.5635 15.2953C17.5634 15.5361 17.5019 15.773 17.3848 15.9828C17.2673 16.1932 17.0979 16.3694 16.8936 16.4955C16.8875 16.4992 16.8811 16.5037 16.875 16.5072L10.9463 19.935C10.9171 19.9519 10.8867 19.9671 10.8555 19.9799C10.6482 20.065 10.4236 20.0994 10.2002 20.0805H10.1992C9.97612 20.0613 9.7598 19.9892 9.56934 19.8696L9.57031 19.8686C9.38044 19.7494 9.22091 19.5878 9.10645 19.3949V19.394C8.99217 19.2011 8.9246 18.9834 8.91113 18.7592C8.91025 18.7444 8.91016 18.7291 8.91016 18.7143V11.8754C8.91016 11.8637 8.91058 11.852 8.91113 11.8403C8.92194 11.6124 8.98823 11.3906 9.10449 11.1947L9.2002 11.0541C9.3042 10.9196 9.43294 10.8042 9.5791 10.7153C9.77333 10.5973 9.99402 10.5292 10.2217 10.516H10.2227ZM10.4102 18.5121L15.9736 15.2944L10.4102 12.0942V18.5121ZM10.3008 11.9057L10.3076 12.0121L10.3018 11.9067L10.3008 11.9057Z"></path><path d="M23.9639 6.25C24.3781 6.25 24.7139 6.58579 24.7139 7C24.7139 7.41421 24.3781 7.75 23.9639 7.75H0.75C0.335786 7.75 0 7.41421 0 7C0 6.58579 0.335786 6.25 0.75 6.25H23.9639Z"></path><path d="M8.98955 0.454255C9.1528 0.0739298 9.59341 -0.102149 9.97392 0.0607004C10.3546 0.223867 10.5316 0.66533 10.3685 1.04605L7.68974 7.29605C7.52645 7.67653 7.08499 7.85272 6.70439 7.68961C6.32391 7.52632 6.14772 7.08486 6.31084 6.70426L8.98955 0.454255Z"></path><path d="M17.0247 0.454248C17.188 0.0739231 17.6286 -0.102139 18.0091 0.0606931C18.3898 0.223861 18.5668 0.665323 18.4036 1.04604L15.7249 7.29604C15.5616 7.67652 15.1202 7.85272 14.7395 7.6896C14.3591 7.52631 14.1829 7.08485 14.346 6.70425L17.0247 0.454248Z"></path></svg>