<svg xmlns="http://www.w3.org/2000/svg" width="25" height="25" viewBox="0 0 25 25" fill="#fff"><path d="M16.0718 15.0356C16.0718 14.6214 16.4076 14.2856 16.8218 14.2856C17.2358 14.2859 17.5718 14.6216 17.5718 15.0356C17.5718 15.7082 17.3042 16.3531 16.8286 16.8286C16.3531 17.3042 15.7082 17.5718 15.0356 17.5718C14.6216 17.5718 14.2859 17.2358 14.2856 16.8218C14.2856 16.4076 14.6214 16.0718 15.0356 16.0718C15.3103 16.0718 15.5738 15.9623 15.7681 15.7681C15.9623 15.5738 16.0718 15.3103 16.0718 15.0356Z"></path><path d="M10.5715 16.0713C10.9857 16.0714 11.3215 16.4071 11.3215 16.8213C11.3215 17.2355 10.9857 17.5712 10.5715 17.5713H7.89282C7.47861 17.5713 7.14282 17.2355 7.14282 16.8213C7.14282 16.4071 7.47861 16.0713 7.89282 16.0713H10.5715Z"></path><path d="M16.0715 10.5718V7.89307C16.0715 7.47885 16.4073 7.14307 16.8215 7.14307C17.2357 7.14307 17.5715 7.47885 17.5715 7.89307V10.5718C17.5715 10.9859 17.2357 11.3218 16.8215 11.3218C16.4074 11.3218 16.0716 10.9859 16.0715 10.5718Z"></path><path d="M7.14282 9.6792C7.14282 9.00669 7.41045 8.36177 7.88599 7.88623C8.36152 7.41069 9.00644 7.14307 9.67896 7.14307C10.093 7.14329 10.429 7.47899 10.429 7.89307C10.429 8.30714 10.093 8.64284 9.67896 8.64307C9.40427 8.64307 9.14077 8.75254 8.94653 8.94678C8.7523 9.14101 8.64282 9.40451 8.64282 9.6792C8.6426 10.0932 8.3069 10.4292 7.89282 10.4292C7.47875 10.4292 7.14305 10.0932 7.14282 9.6792Z"></path><path d="M16.0713 2.53613C16.0713 2.26164 15.9625 1.99791 15.7686 1.80371C15.5744 1.60958 15.3107 1.50011 15.0361 1.5H2.53613C2.26144 1.5 1.99795 1.60948 1.80371 1.80371C1.60948 1.99795 1.5 2.26144 1.5 2.53613V15.0361C1.50011 15.3107 1.60958 15.5744 1.80371 15.7686C1.99791 15.9625 2.26164 16.0713 2.53613 16.0713H7.89258C8.30675 16.0713 8.6425 16.4071 8.64258 16.8213V22.1787C8.64262 22.4533 8.75209 22.7169 8.94629 22.9111C9.14051 23.1053 9.40409 23.2139 9.67871 23.2139H22.1787C22.4533 23.2138 22.7169 23.1053 22.9111 22.9111C23.1053 22.7169 23.2138 22.4533 23.2139 22.1787V9.67871C23.2139 9.40409 23.1053 9.14051 22.9111 8.94629C22.7169 8.75209 22.4533 8.64262 22.1787 8.64258H16.8213C16.4071 8.6425 16.0713 8.30675 16.0713 7.89258V2.53613ZM17.5713 7.14258H22.1787C22.8512 7.14262 23.4962 7.41024 23.9717 7.88574C24.4471 8.36127 24.7139 9.00626 24.7139 9.67871V22.1787C24.7138 22.8512 24.4472 23.4962 23.9717 23.9717C23.4962 24.4472 22.8512 24.7138 22.1787 24.7139H9.67871C9.00626 24.7139 8.36127 24.4471 7.88574 23.9717C7.41024 23.4962 7.14262 22.8512 7.14258 22.1787V17.5713H2.53613C1.86382 17.5713 1.21866 17.3044 0.743164 16.8291C0.267724 16.3537 0.000110851 15.7085 0 15.0361V2.53613C0 1.86362 0.267625 1.2187 0.743164 0.743164C1.2187 0.267625 1.86362 0 2.53613 0H15.0361C15.7085 0.000110851 16.3537 0.267724 16.8291 0.743164C17.3044 1.21866 17.5713 1.86382 17.5713 2.53613V7.14258Z"></path><path d="M16.8215 7.14307C17.2357 7.14314 17.5715 7.4789 17.5715 7.89307C17.5715 8.30723 17.2357 8.64299 16.8215 8.64307H14.1428C13.7286 8.64307 13.3928 8.30728 13.3928 7.89307C13.3928 7.47885 13.7286 7.14307 14.1428 7.14307H16.8215Z"></path><path d="M7.14282 16.8218V14.1431C7.14282 13.7289 7.47861 13.3931 7.89282 13.3931C8.30704 13.3931 8.64282 13.7289 8.64282 14.1431V16.8218C8.64275 17.2359 8.30699 17.5718 7.89282 17.5718C7.47866 17.5718 7.1429 17.2359 7.14282 16.8218Z"></path></svg>