<svg xmlns="http://www.w3.org/2000/svg" width="25" height="24" viewBox="0 0 25 24" fill="#fff"><path d="M8.00424 2.62388C8.40772 2.53077 8.81036 2.782 8.90365 3.1854C8.99676 3.58888 8.74551 3.99151 8.34213 4.08482L8.27572 4.09947C8.27093 4.22622 8.26021 4.35282 8.23861 4.47837C8.17401 4.85373 8.03581 5.21267 7.83138 5.53404C7.62681 5.8555 7.36001 6.13383 7.0472 6.35142C6.73448 6.56889 6.38154 6.72166 6.00912 6.80161L6.00619 6.80259C5.25559 6.96048 4.47287 6.81711 3.8265 6.40415C3.39067 6.12565 3.04274 5.73824 2.80795 5.28697L2.04525 5.44419C1.95401 5.46438 1.86747 5.50325 1.79134 5.55747C1.71485 5.61202 1.64986 5.68138 1.60091 5.76158C1.55189 5.84194 1.51966 5.93208 1.50619 6.02525C1.49279 6.11816 1.49867 6.21285 1.52279 6.30357C1.52583 6.31498 1.52714 6.32724 1.52963 6.33872C1.53108 6.33841 1.53158 6.33872 1.53158 6.33872V6.34165C1.53188 6.34306 1.53297 6.34492 1.53353 6.34751C1.53475 6.35316 1.53602 6.36181 1.53841 6.3729C1.54329 6.39549 1.5504 6.42953 1.5599 6.47349C1.57889 6.56136 1.607 6.69067 1.64291 6.8563C1.71482 7.188 1.81851 7.66577 1.94564 8.2479C2.19993 9.41228 2.54854 10.9957 2.92318 12.6727C3.01347 13.0768 2.75888 13.4778 2.35482 13.5682C1.95057 13.6585 1.54962 13.4041 1.45931 12.9999C1.08402 11.32 0.735417 9.7341 0.480797 8.56822C0.353483 7.98525 0.249142 7.50701 0.177086 7.17466C0.141058 7.00848 0.113153 6.87814 0.0940786 6.7899C0.0845902 6.746 0.0774835 6.71196 0.0725943 6.68931C0.0701837 6.67814 0.0679666 6.66963 0.0667349 6.66392C0.0661239 6.66109 0.0660695 6.65853 0.0657583 6.65708L0.0647818 6.65611C0.064781 6.6561 0.0648412 6.65456 0.0667349 6.65415C-0.0018894 6.37822 -0.0189018 6.09205 0.021813 5.8104C0.0642871 5.51671 0.166154 5.23466 0.320641 4.9813C0.4752 4.72793 0.679511 4.50801 0.921227 4.33579C1.16303 4.16355 1.43781 4.04166 1.72787 3.97837L1.73666 3.97642L3.12923 3.69126L3.27865 3.67564C3.62184 3.67456 3.93112 3.91062 4.01107 4.25767C4.0951 4.62216 4.31891 4.93908 4.63412 5.14048C4.91015 5.31683 5.23707 5.39193 5.5599 5.3563L5.69759 5.33482C5.8745 5.29639 6.04211 5.22333 6.19076 5.11997C6.34032 5.01594 6.46793 4.88304 6.56576 4.72935C6.66355 4.57567 6.73015 4.40398 6.76107 4.22447C6.79196 4.04498 6.78619 3.86095 6.74545 3.68345C6.65275 3.28005 6.90465 2.87715 7.30795 2.78404L8.00424 2.62388Z"></path><path d="M14.2722 0.170798C14.7717 -0.0315911 15.3237 -0.0537718 15.8347 0.102439L16.0505 0.179587L16.0808 0.193259L17.5271 0.87197C17.9016 1.04767 18.0634 1.49324 17.8884 1.86806C17.7964 2.06506 17.7451 2.2787 17.738 2.49599C17.731 2.7133 17.7683 2.93018 17.8474 3.13271C17.9266 3.33527 18.0465 3.51965 18.199 3.6747C18.3515 3.82978 18.5338 3.95256 18.7351 4.03506C18.9364 4.11755 19.1524 4.15859 19.3699 4.15517C19.5874 4.15175 19.8022 4.1043 20.0007 4.01552C20.1993 3.92675 20.3776 3.79833 20.5252 3.63857C20.6727 3.47882 20.7864 3.29078 20.8591 3.08584L20.8884 3.01455C20.9648 2.85383 21.0965 2.72443 21.2605 2.65127C21.448 2.56768 21.6615 2.56529 21.8513 2.64345L23.3689 3.26845L23.4168 3.28994C23.9445 3.55172 24.3547 4.003 24.5642 4.55361C24.7736 5.10408 24.7677 5.7134 24.5476 6.25967L24.5418 6.27236L17.7566 22.2372L17.7546 22.2401C17.5114 22.8058 17.0548 23.253 16.4841 23.4843C15.9134 23.7154 15.2742 23.7124 14.7058 23.4755L14.7009 23.4726L7.45093 20.3837L7.44801 20.3827C6.88233 20.1394 6.43512 19.6829 6.20386 19.1122C5.97262 18.5415 5.97585 17.9023 6.21265 17.3339L6.21851 17.3202L7.00465 15.5341L13.0007 1.41787L13.0017 1.41494C13.245 0.849279 13.7016 0.402077 14.2722 0.170798ZM15.4617 1.55947C15.2608 1.47944 15.0364 1.4801 14.8357 1.56142C14.6322 1.64394 14.4682 1.80252 14.3806 2.00381L8.3816 16.1298L8.37769 16.1386L7.59742 17.911L7.57008 17.9882C7.51398 18.1716 7.52186 18.3695 7.59449 18.5487C7.67721 18.7529 7.83675 18.9163 8.03883 19.0038L15.2888 22.0927C15.4913 22.1753 15.7178 22.1757 15.9207 22.0936C16.1254 22.0107 16.2894 21.8503 16.3767 21.6474L23.156 5.69912C23.235 5.50308 23.237 5.28436 23.1619 5.08681C23.0879 4.89249 22.9444 4.73314 22.7595 4.63857L21.9158 4.29189C21.8289 4.42003 21.7323 4.54187 21.6267 4.65615C21.3415 4.96497 20.9968 5.21304 20.613 5.38467C20.2291 5.55631 19.8138 5.64856 19.3933 5.65517C18.9729 5.66177 18.5558 5.58215 18.1668 5.42275C17.7777 5.26331 17.4245 5.02712 17.1296 4.72744C16.8347 4.42761 16.604 4.07034 16.4509 3.67861C16.2979 3.28692 16.2255 2.86844 16.239 2.44814C16.2444 2.28048 16.2635 2.1139 16.2957 1.9501L15.4617 1.55947Z"></path></svg>