<svg xmlns="http://www.w3.org/2000/svg" width="25" height="25" viewBox="0 0 25 25" fill="#fff"><path d="M23.2139 2.53613C23.2139 1.96417 22.7507 1.50008 22.1787 1.5H2.53613C1.96412 1.5 1.5 1.96412 1.5 2.53613V22.1787C1.50008 22.7507 1.96417 23.2139 2.53613 23.2139H22.1787C22.7506 23.2138 23.2138 22.7506 23.2139 22.1787V2.53613ZM24.7139 22.1787C24.7138 23.579 23.579 24.7138 22.1787 24.7139H2.53613C1.13574 24.7139 7.55037e-05 23.5791 0 22.1787V2.53613C0 1.1357 1.1357 0 2.53613 0H22.1787C23.5791 7.55038e-05 24.7139 1.13574 24.7139 2.53613V22.1787Z"></path><path d="M17.8572 14.1431C17.8572 11.1055 15.3947 8.64307 12.3572 8.64307C9.31961 8.64307 6.85718 11.1055 6.85718 14.1431C6.85718 17.1806 9.31961 19.6431 12.3572 19.6431C15.3947 19.6431 17.8572 17.1806 17.8572 14.1431ZM19.3572 14.1431C19.3572 18.0091 16.2232 21.1431 12.3572 21.1431C8.49118 21.1431 5.35718 18.0091 5.35718 14.1431C5.35718 10.2771 8.49118 7.14307 12.3572 7.14307C16.2232 7.14307 19.3572 10.2771 19.3572 14.1431Z"></path><path d="M6.10742 5.35693C6.52151 5.35708 6.85742 5.69281 6.85742 6.10693C6.85742 6.52105 6.52151 6.85678 6.10742 6.85693H0.75C0.335786 6.85693 0 6.52115 0 6.10693C0 5.69272 0.335786 5.35693 0.75 5.35693H6.10742Z"></path><path d="M23.9646 5.35693C24.3787 5.35708 24.7146 5.69281 24.7146 6.10693C24.7146 6.52105 24.3787 6.85678 23.9646 6.85693H18.6072C18.193 6.85693 17.8572 6.52115 17.8572 6.10693C17.8572 5.69272 18.193 5.35693 18.6072 5.35693H23.9646Z"></path><path d="M11.6072 20.3394V14.0894C11.6072 13.6751 11.943 13.3394 12.3572 13.3394C12.7714 13.3394 13.1072 13.6751 13.1072 14.0894V20.3394C13.1072 20.7536 12.7714 21.0894 12.3572 21.0894C11.943 21.0894 11.6072 20.7536 11.6072 20.3394Z"></path><path d="M6.35446 10.5476C6.56494 10.1908 7.02408 10.0724 7.38083 10.2829L12.7382 13.4431C13.095 13.6536 13.2134 14.1137 13.0029 14.4704C12.7924 14.827 12.3322 14.9455 11.9756 14.7351L6.61911 11.5739C6.26236 11.3635 6.14398 10.9043 6.35446 10.5476Z"></path><path d="M17.3327 10.2829C17.6895 10.0724 18.1496 10.1908 18.3601 10.5476C18.5704 10.9042 18.452 11.3634 18.0954 11.5739L12.738 14.7351C12.3814 14.9454 11.9222 14.8269 11.7116 14.4704C11.5012 14.1137 11.6195 13.6536 11.9763 13.4431L17.3327 10.2829Z"></path></svg>