<svg xmlns="http://www.w3.org/2000/svg" width="25" height="24" viewBox="0 0 25 24" fill="#fff"><path d="M14.1428 22.3213C14.557 22.3213 14.8928 22.6571 14.8928 23.0713C14.8928 23.4855 14.557 23.8213 14.1428 23.8213H10.5715C10.1573 23.8213 9.82153 23.4855 9.82153 23.0713C9.82153 22.6571 10.1573 22.3213 10.5715 22.3213H14.1428Z"></path><path d="M18.7495 9.67822C18.7494 7.98283 18.0763 6.35654 16.8774 5.15771C15.6786 3.95895 14.0523 3.28564 12.3569 3.28564C10.6615 3.28568 9.03528 3.9589 7.83643 5.15771C6.6376 6.35654 5.96443 7.98283 5.96436 9.67822V15.9282C5.96436 16.6211 5.75391 17.2922 5.36963 17.8569H19.3442C18.96 17.2922 18.7495 16.621 18.7495 15.9282V9.67822ZM20.2495 15.9282C20.2495 16.4397 20.4533 16.9308 20.8149 17.2925C21.1765 17.654 21.6669 17.8569 22.1782 17.8569C22.5924 17.8569 22.9281 18.1928 22.9282 18.6069C22.9282 19.0211 22.5924 19.3569 22.1782 19.3569H2.53564C2.12143 19.3569 1.78564 19.0211 1.78564 18.6069C1.78572 18.1928 2.12148 17.8569 2.53564 17.8569C3.04697 17.8569 3.53728 17.6539 3.89893 17.2925C4.2606 16.9308 4.46436 16.4397 4.46436 15.9282V9.67822C4.46443 7.58501 5.29575 5.5773 6.77588 4.09717C8.25604 2.61705 10.2637 1.78568 12.3569 1.78564C14.4502 1.78564 16.4578 2.6171 17.938 4.09717C19.4181 5.5773 20.2494 7.58501 20.2495 9.67822V15.9282Z"></path><path d="M4.77637 0.140778C5.11277 -0.100822 5.5816 -0.0236973 5.82324 0.312653C6.06487 0.649091 5.98781 1.1179 5.65137 1.35953C4.36759 2.28161 3.32145 3.49634 2.59961 4.9025C1.87783 6.30868 1.5009 7.8668 1.5 9.44742C1.49954 9.8613 1.16388 10.1964 0.75 10.1964C0.3616 10.1962 0.0419989 9.90093 0.00390625 9.52261L0 9.44644C0.00102996 7.62771 0.435035 5.83494 1.26562 4.21695C2.09618 2.59911 3.29928 1.20164 4.77637 0.140778Z"></path><path d="M18.8905 0.312644C19.1321 -0.0237628 19.601 -0.100773 19.9374 0.140769C21.4146 1.20169 22.6185 2.59895 23.4491 4.21694C24.2797 5.83492 24.7127 7.62772 24.7138 9.44643C24.7138 9.86047 24.3788 10.1961 23.9647 10.1964C23.5507 10.1967 23.2142 9.86143 23.2138 9.44741C23.2129 7.86673 22.836 6.30872 22.1142 4.90249C21.3923 3.49623 20.3463 2.28162 19.0624 1.35952C18.726 1.11792 18.649 0.649075 18.8905 0.312644Z"></path></svg>