<svg xmlns="http://www.w3.org/2000/svg" width="25" height="25" viewBox="0 0 25 25" fill="#fff"><path d="M21.6483 2.0058C21.9412 1.71291 22.4169 1.71291 22.7098 2.0058C23.0024 2.29872 23.0016 2.77355 22.7088 3.06635L16.62 9.15522C16.3271 9.44811 15.8523 9.44811 15.5594 9.15522C15.2667 8.86231 15.2666 8.38749 15.5594 8.09467L21.6483 2.0058Z"></path><path d="M2.0058 2.0058C2.2987 1.71291 2.77346 1.71291 3.06635 2.0058L9.15522 8.09467C9.44811 8.38756 9.44811 8.86232 9.15522 9.15522C8.86232 9.4481 8.38756 9.44811 8.09467 9.15522L2.0058 3.06635C1.71291 2.77346 1.71291 2.2987 2.0058 2.0058Z"></path><path d="M8.09467 15.5594C8.38749 15.2666 8.86231 15.2667 9.15522 15.5594C9.44811 15.8523 9.44811 16.3271 9.15522 16.62L3.06635 22.7098C2.77353 23.0023 2.29863 23.0023 2.0058 22.7098C1.71291 22.4169 1.71291 21.9412 2.0058 21.6483L8.09467 15.5594Z"></path><path d="M15.5595 15.5585C15.8524 15.2656 16.3272 15.2656 16.6201 15.5585L22.7089 21.6474C23.0018 21.9403 23.0018 22.416 22.7089 22.7089C22.416 23.0013 21.9411 23.0016 21.6484 22.7089L15.5595 16.6191C15.2666 16.3262 15.2666 15.8514 15.5595 15.5585Z"></path><path d="M23.2139 12.3574C23.2139 6.36128 18.3536 1.50016 12.3574 1.5C6.3612 1.5 1.5 6.36118 1.5 12.3574C1.50015 18.3535 6.36129 23.2139 12.3574 23.2139C18.3535 23.2137 23.2137 18.3534 23.2139 12.3574ZM24.7139 12.3574C24.7137 19.1818 19.1819 24.7137 12.3574 24.7139C5.53286 24.7139 0.000148435 19.1819 0 12.3574C0 5.53276 5.53277 0 12.3574 0C19.182 0.000155652 24.7139 5.53285 24.7139 12.3574Z"></path><path d="M16.875 12.3564C16.8749 9.86143 14.8514 7.83887 12.3564 7.83887C9.86151 7.83903 7.83901 9.86154 7.83887 12.3564C7.83887 14.8515 9.86142 16.8748 12.3564 16.875C14.8515 16.875 16.875 14.8516 16.875 12.3564ZM18.375 12.3564C18.375 15.68 15.68 18.375 12.3564 18.375C9.03299 18.3748 6.33887 15.68 6.33887 12.3564C6.33901 9.0331 9.03308 6.33903 12.3564 6.33887C15.6799 6.33887 18.3749 9.03301 18.375 12.3564Z"></path></svg>