<svg xmlns="http://www.w3.org/2000/svg" width="19" height="20" viewBox="0 0 19 20" fill="#fff"><path d="M18.0557 14.9419C17.946 13.8 16.9267 12.9032 15.7396 12.9032C15.5976 12.9032 15.4847 12.7903 15.4847 12.6483V8.84834C15.4847 6.02576 13.6783 3.56448 11.1911 2.64513C11.2202 2.49995 11.2363 2.35159 11.2363 2.20318C11.2363 0.987117 10.2493 0 9.03308 0C7.81691 0 6.82985 0.987117 6.82985 2.20324C6.82985 2.34842 6.84595 2.49354 6.87176 2.63226C6.01695 2.93549 5.22662 3.41612 4.55243 4.06774C3.28147 5.29355 2.58148 6.94193 2.58148 8.70967V12.6484C2.58148 12.7871 2.46857 12.9033 2.32662 12.9033C1.13631 12.9033 0.120151 13.8 0.010476 14.942C-0.050828 15.5775 0.158891 16.2097 0.587911 16.6807C1.0137 17.1484 1.6234 17.4194 2.25885 17.4194H6.1492C6.31048 18.8678 7.54276 20.0001 9.03308 20.0001C10.5234 20.0001 11.7557 18.8678 11.917 17.4194H15.8073C16.4428 17.4194 17.0525 17.1484 17.4783 16.6807C17.9041 16.2096 18.117 15.5774 18.0557 14.9419ZM9.03308 1.2903C9.53628 1.2903 9.94598 1.69998 9.94598 2.20318C9.94598 2.24509 9.93948 2.28383 9.93308 2.32574C9.71368 2.29347 9.49108 2.2709 9.26848 2.26443C8.88462 2.2515 8.5072 2.27736 8.13302 2.32897C8.12655 2.28706 8.12009 2.24833 8.12009 2.20641C8.1202 1.69998 8.52988 1.2903 9.03308 1.2903ZM9.03308 18.7096C8.25568 18.7096 7.60407 18.1548 7.45242 17.4193H10.6137C10.4622 18.1548 9.81058 18.7096 9.03308 18.7096ZM16.5234 15.8129C16.3363 16.0161 16.0847 16.129 15.8073 16.129H2.25891C1.98148 16.129 1.7299 16.0161 1.54276 15.8129C1.35567 15.6097 1.26856 15.3419 1.2976 15.0645C1.34274 14.5774 1.79762 14.1935 2.32986 14.1935C3.18149 14.1935 3.87501 13.5 3.87501 12.6484V8.70967C3.87501 7.29677 4.43629 5.97743 5.45244 4.99678C6.42016 4.05809 7.68471 3.54837 9.03308 3.54837C9.09758 3.54837 9.15888 3.54837 9.22338 3.55161C11.9621 3.64836 14.1944 6.02581 14.1944 8.84839V12.6484C14.1944 13.5 14.8879 14.1935 15.7396 14.1935C16.2718 14.1935 16.7267 14.5774 16.7718 15.0645C16.7976 15.3419 16.7105 15.6065 16.5234 15.8129Z"></path><path d="M0.678522 7.74262C0.975292 7.74262 1.24302 7.53619 1.30756 7.23618C1.62044 5.82005 2.32689 4.52975 3.35915 3.50395C3.61078 3.25232 3.61078 2.84264 3.35915 2.59107C3.10752 2.33944 2.69784 2.33944 2.44627 2.59107C1.23984 3.79097 0.410782 5.30392 0.0463022 6.96193C-0.0311138 7.31031 0.188242 7.65546 0.536622 7.72969C0.588232 7.73939 0.633372 7.74262 0.678522 7.74262Z"></path><path d="M17.3882 7.74199C17.4333 7.74199 17.4817 7.73553 17.5269 7.72589C17.8753 7.64848 18.0946 7.30651 18.0172 6.95813C17.6527 5.30006 16.8237 3.7904 15.6172 2.58716C15.3656 2.33553 14.9559 2.33553 14.7043 2.58716C14.4527 2.83879 14.4527 3.24847 14.7043 3.50004C15.7333 4.52584 16.443 5.81619 16.7559 7.23228C16.8237 7.53551 17.0914 7.74199 17.3882 7.74199Z"></path></svg>