<svg xmlns="http://www.w3.org/2000/svg" width="25" height="22" viewBox="0 0 25 22" fill="#fff"><path d="M18.8622 0.0180664V0.768066L18.8827 0.0180664C19.3001 0.0295265 19.7089 0.139666 20.0761 0.338379C20.4385 0.534558 20.7495 0.812708 20.9862 1.1499H20.9882L24.2382 5.6499L24.2421 5.65576V5.65674C24.5798 6.1341 24.7487 6.71031 24.7216 7.29443C24.6944 7.87863 24.4733 8.43736 24.0927 8.88135L24.0897 8.88428L14.3397 20.1167C14.1066 20.4074 13.8124 20.6441 13.4774 20.8081C13.1303 20.9781 12.7487 21.0659 12.3622 21.0659C11.9757 21.0659 11.5941 20.9781 11.247 20.8081C10.912 20.644 10.6179 20.4074 10.3847 20.1167L0.634664 8.88428L0.631734 8.88135C0.251098 8.43736 0.0299993 7.87862 0.00282773 7.29443C-0.0243165 6.71031 0.144594 6.1341 0.48232 5.65674L0.486226 5.6499L3.73623 1.1499H3.7372C3.97399 0.812501 4.2857 0.534649 4.64834 0.338379C5.01552 0.139666 5.42434 0.0295264 5.84169 0.0180664H18.8622ZM5.74697 1.52979C5.61258 1.54941 5.48226 1.59274 5.3622 1.65771C5.20211 1.7444 5.06455 1.86747 4.96084 2.01709C4.95812 2.021 4.95484 2.02495 4.95205 2.02881L1.70595 6.52197C1.56116 6.72659 1.48923 6.9747 1.50087 7.2251C1.51256 7.47529 1.60744 7.7146 1.77041 7.90479L11.5175 19.1333C11.5265 19.1437 11.5354 19.1547 11.5438 19.1655C11.6407 19.2903 11.7653 19.391 11.9071 19.4604C12.0488 19.5298 12.2044 19.5659 12.3622 19.5659C12.52 19.5659 12.6756 19.5298 12.8173 19.4604C12.9591 19.391 13.0838 19.2903 13.1806 19.1655L13.2069 19.1333L22.954 7.90479C23.117 7.7146 23.2118 7.47529 23.2235 7.2251C23.2352 6.9747 23.1623 6.72756 23.0175 6.52295V6.52197L19.7724 2.02881C19.7696 2.02494 19.7663 2.02101 19.7636 2.01709C19.6598 1.86746 19.5223 1.7444 19.3622 1.65771C19.2421 1.59273 19.1118 1.54941 18.9774 1.52979L18.8417 1.51807H5.88271L5.74697 1.52979Z"></path><path d="M10.8031 0.342778C11.0278 -0.00511014 11.4923 -0.104454 11.8403 0.120122C12.1883 0.344762 12.2885 0.809223 12.0639 1.15723L7.91936 7.5752L13.0551 19.9814C13.2133 20.3641 13.0315 20.8025 12.6488 20.9609C12.2662 21.1191 11.8278 20.9373 11.6694 20.5547L6.38322 7.78711C6.28904 7.55961 6.31316 7.29965 6.4467 7.09278L10.8031 0.342778Z"></path><path d="M12.9384 0.119128C13.2868 -0.104861 13.7515 -0.00371403 13.9755 0.344714L18.3144 7.09471C18.4474 7.30182 18.4705 7.5608 18.3759 7.78807L13.0546 20.5566C12.8952 20.9387 12.4563 21.119 12.0741 20.9599C11.6919 20.8006 11.5106 20.3618 11.6698 19.9795L16.8398 7.57421L12.7138 1.15526C12.4899 0.80694 12.5902 0.343174 12.9384 0.119128Z"></path><path d="M23.9333 6.75L24.0105 6.75391C24.3886 6.7924 24.6833 7.11174 24.6833 7.5C24.6833 7.88826 24.3886 8.2076 24.0105 8.24609L23.9333 8.25H0.790771C0.376558 8.25 0.0407715 7.91421 0.0407715 7.5C0.0407715 7.08579 0.376558 6.75 0.790771 6.75H23.9333Z"></path></svg>