<svg xmlns="http://www.w3.org/2000/svg" width="18" height="18" viewBox="0 0 18 18" fill="#734ade"><path d="M11.4331 8.80615L7.89154 12.3477L6.06689 10.5231C5.82275 10.2789 5.42725 10.2789 5.18311 10.5231C4.93896 10.7672 4.93896 11.1627 5.18311 11.4069L7.44965 13.6734C7.57172 13.7955 7.73163 13.8565 7.89154 13.8565C8.05145 13.8565 8.21136 13.7955 8.33344 13.6734L12.3169 9.68994C12.561 9.4458 12.561 9.05029 12.3169 8.80615C12.0728 8.56201 11.6772 8.56201 11.4331 8.80615Z"></path><path d="M14.375 1.22498H13.4375V0.625C13.4375 0.279846 13.1577 0 12.8125 0C12.4673 0 12.1875 0.279846 12.1875 0.625V1.22498H5.3125V0.625C5.3125 0.279846 5.03265 0 4.6875 0C4.34235 0 4.0625 0.279846 4.0625 0.625V1.22498H3.125C1.40198 1.22498 0 2.62695 0 4.34998V14.375C0 16.098 1.40198 17.5 3.125 17.5H14.375C16.098 17.5 17.5 16.098 17.5 14.375V4.34998C17.5 2.62695 16.098 1.22498 14.375 1.22498ZM1.25 4.34998C1.25 3.31604 2.09106 2.47498 3.125 2.47498H4.0625V3.07465C4.0625 3.4198 4.34235 3.69965 4.6875 3.69965C5.03265 3.69965 5.3125 3.4198 5.3125 3.07465V2.47498H12.1875V3.07465C12.1875 3.4198 12.4673 3.69965 12.8125 3.69965C13.1577 3.69965 13.4375 3.4198 13.4375 3.07465V2.47498H14.375C15.4089 2.47498 16.25 3.31604 16.25 4.34998V4.98108H1.25V4.34998ZM14.375 16.25H3.125C2.09106 16.25 1.25 15.4089 1.25 14.375V6.23108H16.25V14.375C16.25 15.4089 15.4089 16.25 14.375 16.25Z"></path></svg>