<svg xmlns="http://www.w3.org/2000/svg" width="20" height="18" viewBox="0 0 20 18" fill="#734ade"><path d="M19.9719 9.72923C19.9719 9.72913 19.9719 9.72909 19.9718 9.72899L16.1958 0.24757C16.1156 0.0461142 15.8873 -0.0522334 15.6858 0.0279071C15.6857 0.0279562 15.6855 0.0280053 15.6854 0.0281034L0.366301 6.12801C0.303827 6.155 0.249648 6.19809 0.209259 6.25286C0.0818582 6.31906 0.00137412 6.4501 0 6.59364V16.8014C0 17.0182 0.175789 17.194 0.392605 17.194H16.882C17.0988 17.194 17.2746 17.0182 17.2746 16.8014V11.2264L19.7528 10.2394C19.9542 10.159 20.0523 9.93064 19.9719 9.72923ZM16.4894 16.4088H0.785211V6.98625H16.4894V16.4088ZM6.55062 6.203L13.1244 3.58354C13.7111 4.20022 14.524 4.55072 15.3752 4.55406L16.0309 6.203H6.55062ZM17.2746 10.3831V6.59364C17.2746 6.37683 17.0988 6.20104 16.882 6.20104H16.8757L16.0438 4.11159C16.0346 4.09417 16.0238 4.07758 16.0116 4.06212C15.9695 3.87303 15.7944 3.74401 15.6013 3.75982C14.8094 3.83201 14.0346 3.49839 13.5429 2.87331C13.4206 2.72231 13.2055 2.68477 13.0392 2.78537C13.0206 2.78758 13.0021 2.79101 12.9838 2.79558L4.95821 5.99139C4.86109 6.02947 4.7834 6.105 4.74267 6.20104H2.30538L15.6116 0.902828L19.0975 9.65596L17.2746 10.3831Z"></path><path d="M1.85063 13.7583C2.61288 13.9836 3.20934 14.5794 3.43558 15.3413C3.4852 15.5076 3.63816 15.6216 3.8117 15.6216C3.83206 15.6204 3.85228 15.6173 3.87216 15.6126C3.88978 15.6176 3.90779 15.6213 3.92594 15.6236H13.3485C13.3647 15.6215 13.3807 15.6182 13.3964 15.6138C13.5925 15.6615 13.7902 15.5412 13.838 15.345C13.8381 15.3443 13.8383 15.3436 13.8384 15.3429C14.0641 14.5801 14.6607 13.9836 15.4234 13.7579C15.6084 13.7014 15.7233 13.5171 15.6927 13.3261C15.698 13.307 15.7017 13.2876 15.7041 13.268V10.1271C15.7018 10.1074 15.6979 10.088 15.6923 10.069C15.7231 9.87796 15.6081 9.69353 15.423 9.63714C14.6603 9.41154 14.0638 8.81473 13.8388 8.0518C13.782 7.86556 13.5959 7.75033 13.4038 7.78248C13.3857 7.77742 13.3672 7.77374 13.3485 7.77148H3.92594C3.90617 7.77384 3.88659 7.77777 3.86745 7.78326C3.67649 7.75284 3.49226 7.86772 3.43558 8.05259C3.20978 8.81518 2.61327 9.41154 1.85063 9.63714C1.66567 9.69368 1.55073 9.87801 1.58131 10.069C1.5762 10.0881 1.57252 10.1075 1.57031 10.1271V13.268C1.57257 13.2864 1.57625 13.3047 1.58131 13.3225C1.54911 13.5148 1.66429 13.7011 1.85063 13.7583ZM2.35552 10.2865C3.14387 9.96988 3.76871 9.34505 4.08534 8.55669H13.1887C13.5055 9.34505 14.1304 9.96988 14.9189 10.2865V13.1086C14.1308 13.4255 13.5061 14.0503 13.1891 14.8384H4.08534C3.76836 14.0503 3.14363 13.4255 2.35552 13.1086V10.2865Z"></path><path d="M8.63688 14.0531C9.93788 14.0531 10.9925 12.9984 10.9925 11.6974C10.9925 10.3964 9.93788 9.3418 8.63688 9.3418C7.33589 9.3418 6.28125 10.3964 6.28125 11.6974C6.28253 12.9979 7.33643 14.0518 8.63688 14.0531ZM8.63688 10.127C9.5042 10.127 10.2073 10.8301 10.2073 11.6974C10.2073 12.5647 9.5042 13.2678 8.63688 13.2678C7.76957 13.2678 7.06646 12.5647 7.06646 11.6974C7.06646 10.8301 7.76957 10.127 8.63688 10.127Z"></path><path d="M4.31938 12.2872C4.6446 12.2872 4.90828 12.0235 4.90828 11.6983C4.90828 11.3731 4.6446 11.1094 4.31938 11.1094C3.99415 11.1094 3.73047 11.3731 3.73047 11.6983C3.73047 12.0236 3.99415 12.2872 4.31938 12.2872ZM4.31938 11.502C4.42778 11.502 4.51568 11.5899 4.51568 11.6983C4.51568 11.8067 4.42778 11.8946 4.31938 11.8946C4.21097 11.8946 4.12307 11.8067 4.12307 11.6983C4.12307 11.5899 4.21097 11.502 4.31938 11.502Z"></path><path d="M12.9561 12.2872C13.2813 12.2872 13.545 12.0235 13.545 11.6983C13.545 11.3731 13.2813 11.1094 12.9561 11.1094C12.6309 11.1094 12.3672 11.3731 12.3672 11.6983C12.3672 12.0236 12.6309 12.2872 12.9561 12.2872ZM12.9561 11.502C13.0645 11.502 13.1524 11.5899 13.1524 11.6983C13.1524 11.8067 13.0645 11.8946 12.9561 11.8946C12.8477 11.8946 12.7598 11.8067 12.7598 11.6983C12.7598 11.5899 12.8477 11.502 12.9561 11.502Z"></path></svg>