<svg xmlns="http://www.w3.org/2000/svg" width="25" height="25" viewBox="0 0 25 25" fill="#fff"><path d="M23.1746 6.53125C23.1745 6.48506 23.1617 6.43973 23.1375 6.40039C23.1135 6.36157 23.0794 6.3304 23.0388 6.30957L12.8982 1.6123L12.7673 1.56348C12.635 1.52153 12.4966 1.5 12.3572 1.5C12.1714 1.50002 11.9876 1.53834 11.8171 1.6123L11.8162 1.61133L1.67749 6.34375L1.62085 6.38281C1.60386 6.39837 1.5891 6.41672 1.5769 6.43652C1.55275 6.47587 1.53979 6.52121 1.53979 6.56738C1.53983 6.61359 1.55268 6.65889 1.5769 6.69824C1.60072 6.73693 1.63522 6.76723 1.67554 6.78809L11.8162 11.4863C11.9867 11.5604 12.1712 11.5986 12.3572 11.5986C12.5432 11.5986 12.7276 11.5604 12.8982 11.4863L23.0378 6.75391C23.0789 6.73306 23.1133 6.70131 23.1375 6.66211C23.1616 6.62275 23.1746 6.57745 23.1746 6.53125ZM24.6746 6.53125C24.6746 6.85521 24.5846 7.17335 24.4148 7.44922C24.245 7.72494 24.0018 7.94792 23.7126 8.09375C23.7059 8.09716 23.699 8.10031 23.6921 8.10352L13.5134 12.8535C13.5073 12.8564 13.501 12.8596 13.4949 12.8623C13.1358 13.0181 12.7486 13.0986 12.3572 13.0986C11.9658 13.0986 11.5785 13.0182 11.2195 12.8623C11.214 12.8599 11.2083 12.857 11.2029 12.8545L1.02417 8.14062C1.01664 8.13714 1.00912 8.13362 1.00171 8.12988C0.712461 7.98399 0.469391 7.76024 0.299561 7.48438C0.129833 7.2086 0.0398257 6.89121 0.0397949 6.56738C0.0397949 6.24343 0.129729 5.92528 0.299561 5.64941C0.469372 5.37369 0.712587 5.15072 1.00171 5.00488L1.02222 4.99512L11.2009 0.245117L11.2195 0.236328C11.5785 0.0804514 11.9658 1.83438e-05 12.3572 0C12.6997 0 13.0391 0.061805 13.3591 0.181641L13.4949 0.236328L13.5115 0.244141L23.6902 4.95801C23.6977 4.96147 23.7053 4.96505 23.7126 4.96875C24.0019 5.11464 24.245 5.33839 24.4148 5.61426C24.5846 5.89006 24.6745 6.20738 24.6746 6.53125Z"></path><path d="M23.6506 12.2964C24.0268 12.1231 24.4725 12.2883 24.6458 12.6645C24.8188 13.0407 24.6547 13.4864 24.2786 13.6596L13.385 18.6772L13.3831 18.6782C13.0527 18.8289 12.6934 18.9067 12.3303 18.9067C11.9674 18.9067 11.6088 18.8288 11.2786 18.6782L11.2747 18.6762L0.434812 13.6587C0.0591139 13.4846 -0.104392 13.0384 0.0695773 12.6626C0.243677 12.2869 0.689872 12.1234 1.06567 12.2973L11.9045 17.3149H11.9036C12.0376 17.3756 12.1831 17.4067 12.3303 17.4067C12.4784 17.4067 12.6252 17.3753 12.76 17.3139L23.6506 12.2964Z"></path><path d="M23.6506 18.1001C24.0268 17.9268 24.4725 18.092 24.6458 18.4682C24.8188 18.8444 24.6547 19.2901 24.2786 19.4633L13.385 24.4809L13.3831 24.4819C13.0527 24.6326 12.6934 24.7104 12.3303 24.7104C11.9674 24.7104 11.6088 24.6325 11.2786 24.4819L11.2747 24.4799L0.434812 19.4624C0.059114 19.2883 -0.104392 18.8421 0.0695773 18.4663C0.243677 18.0906 0.689872 17.9271 1.06567 18.101L11.9045 23.1186H11.9036C12.0376 23.1793 12.1831 23.2104 12.3303 23.2104C12.4784 23.2104 12.6252 23.179 12.76 23.1176L23.6506 18.1001Z"></path></svg>