<svg xmlns="http://www.w3.org/2000/svg" width="17" height="24" viewBox="0 0 17 24" fill="#734ade"><path d="M15.4287 8.46387C15.4286 6.61701 14.6946 4.84599 13.3887 3.54004C12.0826 2.23398 10.3109 1.5 8.46387 1.5C6.61697 1.50011 4.846 2.23408 3.54004 3.54004C2.23408 4.846 1.50011 6.61697 1.5 8.46387C1.5 9.35533 1.9183 10.6718 2.63672 12.2275C3.3418 13.7544 4.28791 15.4134 5.24414 16.9551C6.19884 18.4943 7.15511 19.9036 7.87305 20.9287C8.09445 21.2448 8.29524 21.5229 8.46387 21.7578C8.63255 21.5228 8.83414 21.245 9.05566 20.9287C9.7736 19.9036 10.7289 18.4942 11.6836 16.9551C12.6399 15.4133 13.5868 13.7545 14.292 12.2275C15.0104 10.6718 15.4287 9.35533 15.4287 8.46387ZM16.9287 8.46387C16.9287 9.70669 16.3823 11.2799 15.6543 12.8564C14.913 14.4617 13.9312 16.1787 12.959 17.7461C11.9853 19.3159 11.0126 20.749 10.2842 21.7891C9.91982 22.3093 9.61554 22.7322 9.40234 23.0254C9.29583 23.1719 9.21182 23.2864 9.1543 23.3643L9.07129 23.4766C9.06945 23.479 9.06745 23.481 9.06641 23.4824L9.06543 23.4844C8.92381 23.6735 8.70015 23.7861 8.46387 23.7861C8.22784 23.786 8.0058 23.6742 7.86426 23.4854L8.46387 23.0361L7.86328 23.4854V23.4844L7.8623 23.4824C7.86126 23.481 7.85929 23.4791 7.85742 23.4766L7.77441 23.3643C7.71689 23.2864 7.63291 23.1719 7.52637 23.0254C7.31317 22.7322 7.00892 22.3093 6.64453 21.7891C5.91609 20.749 4.94342 19.3159 3.96973 17.7461C2.99753 16.1787 2.01568 14.4617 1.27441 12.8564C0.546399 11.2799 0 9.70669 0 8.46387C0.000110884 6.21915 0.892229 4.06676 2.47949 2.47949C4.06676 0.892229 6.21915 0.000110852 8.46387 0C10.7087 0 12.8619 0.892131 14.4492 2.47949C16.0364 4.06675 16.9286 6.21918 16.9287 8.46387Z"></path><path d="M10.2854 8.46436C10.2853 7.45847 9.47001 6.64307 8.46411 6.64307C7.45827 6.64314 6.6429 7.45852 6.64282 8.46436C6.64282 9.47026 7.45823 10.2856 8.46411 10.2856C9.47006 10.2856 10.2854 9.4703 10.2854 8.46436ZM11.7854 8.46436C11.7854 10.2987 10.2985 11.7856 8.46411 11.7856C6.6298 11.7856 5.14282 10.2987 5.14282 8.46436C5.1429 6.63009 6.62985 5.14314 8.46411 5.14307C10.2984 5.14307 11.7853 6.63005 11.7854 8.46436Z"></path></svg>