<svg xmlns="http://www.w3.org/2000/svg" width="20" height="19" viewBox="0 0 20 19" fill="#fff"><path d="M11.3936 12.1782C11.3933 9.43672 9.17027 7.21436 6.42871 7.21436C3.68734 7.21458 1.46507 9.43686 1.46484 12.1782C1.46484 14.9198 3.6872 17.1428 6.42871 17.1431C9.17041 17.1431 11.3936 14.9199 11.3936 12.1782ZM12.8936 12.1782C12.8936 15.7483 9.99884 18.6431 6.42871 18.6431C2.85878 18.6428 -0.0351562 15.7482 -0.0351562 12.1782C-0.03493 8.60843 2.85892 5.71458 6.42871 5.71436C9.9987 5.71436 12.8933 8.60829 12.8936 12.1782Z"></path><path d="M18.5361 12.1782C18.5359 9.43672 16.3128 7.21436 13.5713 7.21436C10.8299 7.21458 8.60765 9.43686 8.60742 12.1782C8.60742 14.9198 10.8298 17.1428 13.5713 17.1431C16.313 17.1431 18.5361 14.9199 18.5361 12.1782ZM20.0361 12.1782C20.0361 15.7483 17.1414 18.6431 13.5713 18.6431C10.0014 18.6428 7.10742 15.7482 7.10742 12.1782C7.10765 8.60843 10.0015 5.71458 13.5713 5.71436C17.1413 5.71436 20.0359 8.60829 20.0361 12.1782Z"></path><path d="M14.9658 6.46387C14.9656 3.72236 12.7425 1.5 10.001 1.5C7.25961 1.50023 5.03734 3.7225 5.03711 6.46387C5.03711 9.20543 7.25947 11.4285 10.001 11.4287C12.7427 11.4287 14.9658 9.20557 14.9658 6.46387ZM16.4658 6.46387C16.4658 10.034 13.5711 12.9287 10.001 12.9287C6.43104 12.9285 3.53711 10.0339 3.53711 6.46387C3.53734 2.89407 6.43118 0.000226243 10.001 0C13.571 0 16.4656 2.89393 16.4658 6.46387Z"></path></svg>