<svg xmlns="http://www.w3.org/2000/svg" width="20" height="20" viewBox="0 0 20 20" fill="#fff"><path d="M7.10742 2.14307C7.10742 1.7683 6.80348 1.46436 6.42871 1.46436H2.14355C1.76879 1.46436 1.46484 1.7683 1.46484 2.14307V6.42822C1.46484 6.80299 1.76879 7.10693 2.14355 7.10693H6.42871C6.80348 7.10693 7.10742 6.80299 7.10742 6.42822V2.14307ZM8.60742 6.42822C8.60742 7.63141 7.6319 8.60693 6.42871 8.60693H2.14355C0.940363 8.60693 -0.0351562 7.63141 -0.0351562 6.42822V2.14307C-0.0351562 0.939875 0.940363 -0.0356445 2.14355 -0.0356445H6.42871C7.6319 -0.0356445 8.60742 0.939875 8.60742 2.14307V6.42822Z"></path><path d="M18.5352 2.14307C18.5352 1.7683 18.2312 1.46436 17.8564 1.46436H13.5713C13.1965 1.46436 12.8926 1.7683 12.8926 2.14307V6.42822C12.8926 6.80299 13.1965 7.10693 13.5713 7.10693H17.8564C18.2312 7.10693 18.5352 6.80299 18.5352 6.42822V2.14307ZM20.0352 6.42822C20.0352 7.63141 19.0596 8.60693 17.8564 8.60693H13.5713C12.3681 8.60693 11.3926 7.63141 11.3926 6.42822V2.14307C11.3926 0.939875 12.3681 -0.0356445 13.5713 -0.0356445H17.8564C19.0596 -0.0356445 20.0352 0.939875 20.0352 2.14307V6.42822Z"></path><path d="M7.10742 13.5718C7.10742 13.197 6.80348 12.8931 6.42871 12.8931H2.14355C1.76879 12.8931 1.46484 13.197 1.46484 13.5718V17.8569C1.46484 18.2317 1.76879 18.5356 2.14355 18.5356H6.42871C6.80348 18.5356 7.10742 18.2317 7.10742 17.8569V13.5718ZM8.60742 17.8569C8.60742 19.0601 7.6319 20.0356 6.42871 20.0356H2.14355C0.940363 20.0356 -0.0351562 19.0601 -0.0351562 17.8569V13.5718C-0.0351562 12.3686 0.940363 11.3931 2.14355 11.3931H6.42871C7.6319 11.3931 8.60742 12.3686 8.60742 13.5718V17.8569Z"></path><path d="M18.5352 13.5718C18.5352 13.197 18.2312 12.8931 17.8564 12.8931H13.5713C13.1965 12.8931 12.8926 13.197 12.8926 13.5718V17.8569C12.8926 18.2317 13.1965 18.5356 13.5713 18.5356H17.8564C18.2312 18.5356 18.5352 18.2317 18.5352 17.8569V13.5718ZM20.0352 17.8569C20.0352 19.0601 19.0596 20.0356 17.8564 20.0356H13.5713C12.3681 20.0356 11.3926 19.0601 11.3926 17.8569V13.5718C11.3926 12.3686 12.3681 11.3931 13.5713 11.3931H17.8564C19.0596 11.3931 20.0352 12.3686 20.0352 13.5718V17.8569Z"></path></svg>