<svg xmlns="http://www.w3.org/2000/svg" width="24" height="24" viewBox="0 0 24 24" fill="#734ade"><path d="M15.4285 9.32178C15.4285 7.3692 13.8458 5.78587 11.8933 5.78564C9.94059 5.78564 8.35718 7.36906 8.35718 9.32178C8.3574 11.2743 9.94073 12.8569 11.8933 12.8569C13.8457 12.8567 15.4282 11.2742 15.4285 9.32178ZM16.9285 9.32178C16.9282 12.1026 14.6741 14.3567 11.8933 14.3569C9.1123 14.3569 6.8574 12.1027 6.85718 9.32178C6.85718 6.54063 9.11216 4.28564 11.8933 4.28564C14.6743 4.28587 16.9285 6.54077 16.9285 9.32178Z"></path><path d="M11.8931 15.4312C13.4918 15.4312 15.0636 15.8426 16.4576 16.6255C17.8516 17.4086 19.0212 18.5373 19.8531 19.9028C20.0686 20.2566 19.9568 20.7186 19.6031 20.9341C19.2494 21.1494 18.7873 21.0368 18.5718 20.6831C17.8738 19.5375 16.8928 18.5901 15.7232 17.9331C14.5536 17.2762 13.2346 16.9312 11.8931 16.9312C10.5514 16.9312 9.23182 17.276 8.06205 17.9331C6.89235 18.5902 5.91146 19.5374 5.21342 20.6831C4.99792 21.0368 4.53591 21.1496 4.18217 20.9341C3.82851 20.7186 3.71669 20.2565 3.93217 19.9028C4.76409 18.5373 5.93357 17.4086 7.32768 16.6255C8.72175 15.8424 10.2942 15.4312 11.8931 15.4312Z"></path><path d="M22.2861 11.8926C22.286 6.15289 17.6323 1.5 11.8926 1.5C6.15298 1.50015 1.50015 6.15298 1.5 11.8926C1.5 17.6323 6.15289 22.286 11.8926 22.2861C17.6324 22.2861 22.2861 17.6324 22.2861 11.8926ZM23.7861 11.8926C23.7861 18.4608 18.4608 23.7861 11.8926 23.7861C5.32446 23.786 0 18.4607 0 11.8926C0.000150852 5.32456 5.32456 0.000150848 11.8926 0C18.4607 0 23.786 5.32446 23.7861 11.8926Z"></path></svg>