<svg xmlns="http://www.w3.org/2000/svg" width="24" height="24" viewBox="0 0 24 24" fill="#734ade"><path d="M0 21.3213V5.89258C0.000110819 5.23916 0.259635 4.61244 0.72168 4.15039C1.18372 3.68835 1.81045 3.42882 2.46387 3.42871C2.87808 3.42871 3.21387 3.7645 3.21387 4.17871C3.21387 4.59292 2.87808 4.92871 2.46387 4.92871C2.20827 4.92882 1.96297 5.0302 1.78223 5.21094C1.60149 5.39168 1.50011 5.63698 1.5 5.89258V21.3213C1.5 21.577 1.60139 21.8231 1.78223 22.0039C1.96295 22.1846 2.20834 22.286 2.46387 22.2861H21.3213C21.5768 22.2861 21.8221 22.1845 22.0029 22.0039C22.1838 21.8231 22.2861 21.577 22.2861 21.3213V5.89258C22.286 5.63698 22.1837 5.39168 22.0029 5.21094C21.8221 5.03027 21.5769 4.92871 21.3213 4.92871H17.8926C17.4785 4.92856 17.1426 4.59283 17.1426 4.17871C17.1426 3.76459 17.4785 3.42886 17.8926 3.42871H21.3213C21.9747 3.42871 22.6014 3.68842 23.0635 4.15039C23.5255 4.61243 23.786 5.23916 23.7861 5.89258V21.3213C23.7861 21.9749 23.5256 22.6023 23.0635 23.0645C22.6014 23.5263 21.9747 23.7861 21.3213 23.7861H2.46387C1.81051 23.786 1.18371 23.5264 0.72168 23.0645C0.259537 22.6023 0 21.9749 0 21.3213Z"></path><path d="M23.0361 10.2856C23.4502 10.2859 23.7861 10.6216 23.7861 11.0356C23.7861 11.4497 23.4502 11.7854 23.0361 11.7856H0.75C0.335786 11.7856 0 11.4499 0 11.0356C0 10.6214 0.335786 10.2856 0.75 10.2856H23.0361Z"></path><path d="M5.14282 7.60742V0.75C5.14282 0.335786 5.47861 0 5.89282 0C6.30704 0 6.64282 0.335786 6.64282 0.75V7.60742C6.64267 8.02151 6.30694 8.35742 5.89282 8.35742C5.4787 8.35742 5.14297 8.02151 5.14282 7.60742Z"></path><path d="M17.1428 7.60742V0.75C17.1428 0.335786 17.4786 0 17.8928 0C18.307 0 18.6428 0.335786 18.6428 0.75V7.60742C18.6427 8.02151 18.3069 8.35742 17.8928 8.35742C17.4787 8.35742 17.143 8.02151 17.1428 7.60742Z"></path><path d="M14.4641 3.42871C14.8783 3.42871 15.2141 3.7645 15.2141 4.17871C15.2141 4.59292 14.8783 4.92871 14.4641 4.92871H5.89282C5.47861 4.92871 5.14282 4.59292 5.14282 4.17871C5.14282 3.7645 5.47861 3.42871 5.89282 3.42871H14.4641Z"></path></svg>