<svg xmlns="http://www.w3.org/2000/svg" width="20" height="20" viewBox="0 0 20 20" fill="#fff"><path d="M9.45605 -0.0357056C9.65492 -0.0357048 9.84569 0.0434369 9.98633 0.184021L13.1152 3.31293C13.4075 3.60551 13.4082 4.07957 13.1162 4.3725L7.00684 10.4946C6.74037 10.8327 6.60486 11.2565 6.62695 11.687C6.64958 12.1265 6.83531 12.5418 7.14648 12.853C7.45772 13.1641 7.87305 13.349 8.3125 13.3715C8.74316 13.3936 9.16577 13.2573 9.50391 12.9907L15.6113 6.88422L15.6689 6.83246C15.963 6.59276 16.3962 6.6098 16.6709 6.88324L19.8135 10.0112C19.9547 10.1517 20.0349 10.3432 20.0352 10.5424C20.0353 10.7415 19.9562 10.9329 19.8154 11.0737L13.1152 17.7729C12.4003 18.4878 11.5513 19.0549 10.6172 19.4418C9.68309 19.8288 8.68191 20.0287 7.6709 20.0287C5.62878 20.0287 3.66959 19.2168 2.22559 17.7729C0.78181 16.3289 -0.0292969 14.3705 -0.0292969 12.3286C-0.0292842 10.2866 0.781784 8.32818 2.22559 6.88422L8.92578 0.184021C9.06638 0.0434196 9.25722 -0.0356485 9.45605 -0.0357056ZM1.4707 12.3286C1.4707 13.9727 2.12364 15.5496 3.28613 16.7123C4.44883 17.875 6.0266 18.5287 7.6709 18.5287C8.48499 18.5287 9.29098 18.3676 10.043 18.0561C10.7952 17.7445 11.4791 17.288 12.0547 16.7123L18.2227 10.5434L16.1426 8.47308L10.5293 14.0873C10.5112 14.1054 10.4925 14.123 10.4727 14.1391C9.84319 14.651 9.04569 14.9112 8.23535 14.8696C7.42505 14.828 6.65863 14.4872 6.08496 13.9135C5.51141 13.3398 5.17049 12.5733 5.12891 11.7631C5.08743 10.953 5.34848 10.1562 5.86035 9.52679L5.91113 9.47015L11.5244 3.8432L9.45605 1.77484L3.28613 7.94476C2.12364 9.10742 1.47072 10.6844 1.4707 12.3286Z"></path><path d="M12.5967 9.91263C12.8896 9.61974 13.3644 9.61974 13.6573 9.91263L16.7862 13.0415C17.0787 13.3345 17.079 13.8093 16.7862 14.1021C16.4934 14.3948 16.0186 14.3946 15.7257 14.1021L12.5967 10.9732C12.3039 10.6803 12.3039 10.2055 12.5967 9.91263Z"></path><path d="M5.8974 3.21259C6.1903 2.9197 6.66506 2.9197 6.95795 3.21259L10.0869 6.3415C10.3794 6.63442 10.3796 7.10926 10.0869 7.40204C9.79407 7.69482 9.31923 7.6946 9.02631 7.40204L5.8974 4.27314C5.60451 3.98024 5.60451 3.50548 5.8974 3.21259Z"></path></svg>