<svg xmlns="http://www.w3.org/2000/svg" width="20" height="20" viewBox="0 0 20 20" fill="#fff"><path d="M16.3926 11.9857V8.01398C16.3926 6.44361 15.8153 4.92771 14.7695 3.75617C14.4937 3.44716 14.5201 2.97341 14.8291 2.69758C15.1381 2.42174 15.6119 2.44911 15.8877 2.75812C17.1788 4.20449 17.8926 6.07512 17.8926 8.01398V11.9857C17.8926 13.0221 17.6887 14.0486 17.292 15.0062C16.8954 15.9638 16.3138 16.8338 15.5811 17.5667C14.9396 18.2081 14.1932 18.7334 13.375 19.1204L13.0205 19.2777C12.0629 19.6742 11.0365 19.8782 10 19.8782C9.58579 19.8782 9.25 19.5425 9.25 19.1282C9.2502 18.7142 9.58591 18.3782 10 18.3782C10.8394 18.3782 11.6706 18.2131 12.4463 17.8919C13.2219 17.5706 13.9269 17.0998 14.5205 16.5062C15.1141 15.9125 15.5851 15.2075 15.9062 14.432C16.2275 13.6564 16.3926 12.8251 16.3926 11.9857Z"></path><path d="M2.10742 11.9858V9.60004C2.10742 9.18582 2.44321 8.85004 2.85742 8.85004C3.27164 8.85004 3.60742 9.18582 3.60742 9.60004V11.9858C3.60699 13.2442 3.97785 14.4754 4.67383 15.5239C5.36976 16.5722 6.35979 17.392 7.51953 17.8803C7.90129 18.041 8.08064 18.481 7.91992 18.8627C7.75911 19.2443 7.31918 19.4238 6.9375 19.2631C5.50552 18.6602 4.28307 17.6474 3.42383 16.353C2.61846 15.1395 2.1654 13.7284 2.1123 12.2768L2.10742 11.9858Z"></path><path d="M7.95701 0.390202C9.97893 -0.151541 12.1335 0.132646 13.9463 1.17926C14.305 1.38637 14.4278 1.84496 14.2207 2.20368C14.0135 2.56228 13.5549 2.68517 13.1963 2.47809C11.7281 1.63046 9.98327 1.4007 8.34568 1.83942C6.708 2.27822 5.31161 3.34967 4.46384 4.81794L4.46286 4.81891C4.11464 5.42039 3.86941 6.07621 3.7363 6.75837C3.65681 7.16469 3.26283 7.42945 2.85642 7.35016C2.44987 7.27083 2.18432 6.87683 2.26365 6.47028C2.42867 5.62475 2.73332 4.8125 3.16501 4.06696C4.21172 2.25463 5.93544 0.931912 7.95701 0.390202Z"></path><path d="M12.8223 10.8711V8.56152C12.8277 8.13724 12.7381 7.71698 12.5596 7.33203C12.381 6.94703 12.1184 6.60683 11.7911 6.33691C11.4636 6.06691 11.079 5.87432 10.667 5.77246C10.2551 5.67066 9.82561 5.66278 9.41021 5.74902C9.00478 5.83309 8.60777 5.57237 8.52349 5.16699C8.4393 4.76142 8.69996 4.36446 9.10552 4.28027C9.74085 4.14838 10.3975 4.16067 11.0274 4.3164C11.6573 4.47215 12.2445 4.76693 12.7452 5.17968C13.2458 5.59246 13.647 6.11261 13.92 6.70117L14.0157 6.9248C14.2234 7.44789 14.3283 8.00697 14.3223 8.57128V10.8711C14.3223 11.2852 13.9865 11.621 13.5723 11.6211C13.1581 11.6211 12.8223 11.2853 12.8223 10.8711Z"></path><path d="M6.02348 6.85088C6.18488 6.46948 6.62448 6.29115 7.00591 6.45245C7.38733 6.61385 7.56567 7.05343 7.40434 7.43487C7.25281 7.79298 7.17563 8.17887 7.17778 8.56768V11.4407C7.16864 12.0154 7.33529 12.5795 7.65532 13.0569C7.97533 13.5343 8.43373 13.9027 8.9688 14.1126C9.50388 14.3224 10.0903 14.3633 10.6495 14.2308H10.6504C11.2095 14.0981 11.7148 13.798 12.0987 13.3704C12.3754 13.0622 12.85 13.037 13.1582 13.3138C13.4661 13.5905 13.4914 14.0643 13.2149 14.3724C12.6267 15.0274 11.8526 15.4877 10.9961 15.6907C10.1394 15.8939 9.24049 15.8304 8.42094 15.5091C7.60145 15.1876 6.89941 14.6232 6.40923 13.8919C5.92137 13.164 5.66729 12.305 5.67876 11.429H5.67778V8.57159C5.67505 7.98054 5.79317 7.39522 6.02348 6.85088Z"></path><path d="M9.25 11.1143V8.72858C9.25 8.31436 9.58579 7.97858 10 7.97858C10.4142 7.97858 10.75 8.31436 10.75 8.72858V11.1143C10.75 11.5285 10.4142 11.8643 10 11.8643C9.58579 11.8643 9.25001 11.5285 9.25 11.1143Z"></path></svg>