<svg xmlns="http://www.w3.org/2000/svg" width="25" height="25" viewBox="0 0 25 25" fill="#fff"><path d="M23.3574 22.3213V18.75C23.3574 18.3358 23.6932 18 24.1074 18C24.5215 18.0002 24.8574 18.3359 24.8574 18.75V22.3213C24.8574 22.9938 24.5898 23.6387 24.1143 24.1143C23.6387 24.5898 22.9938 24.8574 22.3213 24.8574H18.75C18.3359 24.8574 18.0002 24.5215 18 24.1074C18 23.6932 18.3358 23.3574 18.75 23.3574H22.3213C22.596 23.3574 22.8595 23.2479 23.0537 23.0537C23.2479 22.8595 23.3574 22.596 23.3574 22.3213Z"></path><path d="M23.3574 6.25027V2.67899C23.3574 2.40432 23.2478 2.14074 23.0537 1.94656C22.8595 1.75232 22.596 1.64285 22.3213 1.64285H18.75C18.3358 1.64285 18 1.30707 18 0.892853C18 0.478639 18.3358 0.142853 18.75 0.142853H22.3213C22.9938 0.142853 23.6387 0.410485 24.1143 0.886017C24.5898 1.36157 24.8574 2.00659 24.8574 2.67899V6.25027C24.8573 6.66425 24.5214 7.0001 24.1074 7.00027C23.6933 7.00027 23.3576 6.66436 23.3574 6.25027Z"></path><path d="M0.142578 6.25027V2.67899C0.142578 2.00647 0.41021 1.36155 0.885742 0.886017C1.36128 0.410478 2.0062 0.142853 2.67871 0.142853H6.25C6.66408 0.143004 7 0.478733 7 0.892853C7 1.30697 6.66408 1.6427 6.25 1.64285H2.67871C2.40403 1.64285 2.14053 1.75233 1.94629 1.94656C1.75206 2.14079 1.64258 2.4043 1.64258 2.67899V6.25027C1.64243 6.66436 1.3067 7.00027 0.892578 7.00027C0.478456 7.00027 0.142727 6.66436 0.142578 6.25027Z"></path><path d="M0.142578 22.3213V18.75C0.142578 18.3358 0.478365 18 0.892578 18C1.30679 18 1.64258 18.3358 1.64258 18.75V22.3213C1.64258 22.596 1.75204 22.8595 1.94629 23.0537C2.14048 23.2478 2.40405 23.3574 2.67871 23.3574H6.25C6.66408 23.3576 7 23.6933 7 24.1074C6.99983 24.5214 6.66398 24.8573 6.25 24.8574H2.67871C2.00631 24.8574 1.3613 24.5897 0.885742 24.1143C0.410231 23.6387 0.142578 22.9938 0.142578 22.3213Z"></path><path d="M12.501 6.39285C15.0214 6.393 17.2088 7.8932 18.7012 9.27078C19.4604 9.97154 20.0712 10.67 20.4922 11.1927C20.7033 11.4546 20.8686 11.674 20.9815 11.8294C21.0378 11.9069 21.0813 11.9687 21.1114 12.012C21.1264 12.0336 21.1383 12.0507 21.1465 12.0628C21.1506 12.0688 21.1539 12.0739 21.1563 12.0774C21.1574 12.079 21.1585 12.0803 21.1592 12.0813L21.1602 12.0833C21.1603 12.0835 21.1602 12.0842 20.5362 12.5003L21.1602 12.0843C21.3071 12.3047 21.3261 12.5836 21.2159 12.8186L21.1602 12.9163L21.1592 12.9182C21.1585 12.9194 21.1575 12.9214 21.1563 12.9231C21.154 12.9266 21.1505 12.931 21.1465 12.9368C21.1383 12.9488 21.1263 12.9661 21.1114 12.9876C21.0813 13.0309 21.0379 13.0935 20.9815 13.1712C20.8686 13.3266 20.7033 13.5459 20.4922 13.8079C20.0711 14.3306 19.4603 15.0291 18.7012 15.7298C17.2088 17.1073 15.0213 18.6066 12.501 18.6067C9.98045 18.6067 7.79231 17.1074 6.29985 15.7298C5.54075 15.0291 4.92993 14.3306 4.50883 13.8079C4.29798 13.5461 4.1334 13.3266 4.02055 13.1712C3.9641 13.0934 3.91979 13.0309 3.88969 12.9876C3.87479 12.9661 3.86369 12.9488 3.85551 12.9368C3.85158 12.931 3.84809 12.9266 3.84575 12.9231C3.84458 12.9214 3.84357 12.9194 3.84282 12.9182L3.84087 12.9163C3.67296 12.6644 3.67304 12.3362 3.84087 12.0843L4.46489 12.5003C3.84085 12.0842 3.84072 12.0835 3.84087 12.0833H3.84184L3.84282 12.0813C3.84354 12.0803 3.84468 12.079 3.84575 12.0774C3.84812 12.0739 3.85142 12.0688 3.85551 12.0628C3.86371 12.0507 3.87479 12.0335 3.88969 12.012C3.91979 11.9687 3.9641 11.9071 4.02055 11.8294C4.1334 11.674 4.29782 11.4546 4.50883 11.1927C4.92989 10.67 5.54072 9.97155 6.29985 9.27078C7.79231 7.89313 9.98044 6.39285 12.501 6.39285ZM12.501 7.89285C10.5573 7.89285 8.72674 9.07147 7.31743 10.3723C6.6259 11.0107 6.06484 11.6514 5.6768 12.1331C5.56672 12.2697 5.47022 12.393 5.38969 12.4993C5.47035 12.6058 5.56641 12.7294 5.6768 12.8665C6.06484 13.3482 6.62582 13.9888 7.31743 14.6272C8.72676 15.9281 10.5573 17.1067 12.501 17.1067C14.4446 17.1066 16.2744 15.9281 17.6836 14.6272C18.3753 13.9888 18.9362 13.3482 19.3243 12.8665C19.4345 12.7297 19.5298 12.6057 19.6104 12.4993C19.53 12.3931 19.4342 12.2695 19.3243 12.1331C18.9362 11.6514 18.3751 11.0106 17.6836 10.3723C16.2744 9.07158 14.4445 7.893 12.501 7.89285Z"></path><path d="M12.6436 12.4997C12.6434 12.4208 12.5787 12.3571 12.5 12.3571C12.4214 12.3573 12.3576 12.421 12.3574 12.4997C12.3574 12.5783 12.4212 12.6431 12.5 12.6432C12.5789 12.6432 12.6436 12.5786 12.6436 12.4997ZM14.1436 12.4997C14.1436 13.407 13.4073 14.1432 12.5 14.1432C11.5929 14.1431 10.8574 13.407 10.8574 12.4997C10.8576 11.5926 11.5929 10.8573 12.5 10.8571C13.4073 10.8571 14.1434 11.5926 14.1436 12.4997Z"></path></svg>