<svg xmlns="http://www.w3.org/2000/svg" width="20" height="20" viewBox="0 0 20 20" fill="#fff"><path d="M12.8223 9.99988C12.8222 8.4417 11.5592 7.17859 10.001 7.17859C8.44286 7.17865 7.17975 8.44176 7.17969 9.99988C7.17969 11.5581 8.4428 12.8211 10.001 12.8212C11.5593 12.8212 12.8223 11.5582 12.8223 9.99988ZM14.3223 9.99988C14.3223 12.3866 12.3877 14.3212 10.001 14.3212C7.6144 14.3211 5.67969 12.3866 5.67969 9.99988C5.67975 7.61333 7.61443 5.67865 10.001 5.67859C12.3877 5.67859 14.3222 7.6133 14.3223 9.99988Z"></path><path d="M10.001 -0.0357056C10.2393 -0.0355862 10.4632 0.0779739 10.6045 0.269958L12.793 3.24652L16.459 2.68695C16.6948 2.65102 16.9339 2.72927 17.1025 2.89789C17.2712 3.06653 17.3494 3.30568 17.3135 3.54144L16.7529 7.20746L19.7305 9.39594C19.9227 9.53726 20.0361 9.76186 20.0361 10.0004C20.036 10.2388 19.9225 10.4627 19.7305 10.6039L16.7529 12.7924L17.3135 16.4584C17.3494 16.6942 17.2712 16.9333 17.1025 17.102C16.9339 17.2706 16.6948 17.3489 16.459 17.3129L12.792 16.7524L10.6045 19.7299C10.4632 19.9219 10.2394 20.0355 10.001 20.0356C9.76241 20.0356 9.53781 19.9221 9.39648 19.7299L7.20801 16.7524L3.54199 17.3129C3.30623 17.3488 3.06708 17.2706 2.89844 17.102C2.72981 16.9333 2.65159 16.6942 2.6875 16.4584L3.24707 12.7924L0.270508 10.6039C0.0785218 10.4627 -0.0350209 10.2388 -0.0351562 10.0004C-0.0351546 9.7619 0.0783734 9.53726 0.270508 9.39594L3.24707 7.20746L2.6875 3.54144C2.65162 3.30569 2.7298 3.06652 2.89844 2.89789C3.06707 2.72925 3.30624 2.65107 3.54199 2.68695L7.20801 3.24652L9.39648 0.269958L9.45312 0.201599C9.594 0.0511414 9.79225 -0.0357072 10.001 -0.0357056ZM8.14746 4.5014C7.98217 4.72614 7.70548 4.84041 7.42969 4.79828L4.32422 4.32367L4.79883 7.42914C4.84096 7.70493 4.72669 7.98162 4.50195 8.14691L1.98047 9.99945L4.50195 11.853C4.72676 12.0182 4.84097 12.2949 4.79883 12.5707L4.32422 15.6752L7.42969 15.2016L7.5332 15.1928C7.77314 15.1895 8.00279 15.3018 8.14746 15.4985L10 18.019L11.8535 15.4985L11.9199 15.4194C12.0873 15.2474 12.3299 15.1647 12.5713 15.2016L15.6758 15.6752L15.2021 12.5707C15.16 12.2949 15.2743 12.0183 15.499 11.853L18.0195 9.99945L15.499 8.14691C15.2743 7.98161 15.16 7.7049 15.2021 7.42914L15.6758 4.32367L12.5713 4.79828C12.2955 4.84042 12.0188 4.72619 11.8535 4.5014L10 1.97992L8.14746 4.5014Z"></path></svg>