<svg xmlns="http://www.w3.org/2000/svg" width="25" height="25" viewBox="0 0 25 25" fill="#fff"><path d="M23.3564 2.67899C23.3564 2.10706 22.8933 1.64295 22.3213 1.64285H2.67871C2.1067 1.64285 1.64258 2.10697 1.64258 2.67899V22.3216L1.64746 22.427C1.70036 22.9494 2.14235 23.3567 2.67871 23.3567H22.3213C22.8933 23.3566 23.3564 22.8934 23.3564 22.3216V2.67899ZM24.8564 22.3216C24.8564 23.7219 23.7216 24.8566 22.3213 24.8567H2.67871C1.36569 24.8567 0.28497 23.8591 0.155273 22.5804L0.142578 22.3216V2.67899C0.142578 1.27854 1.27828 0.142853 2.67871 0.142853H22.3213C23.7217 0.142955 24.8564 1.27858 24.8564 2.67899V22.3216Z"></path><path d="M14.2861 7.28571C14.7003 7.28578 15.0361 7.62154 15.0361 8.03571C15.0361 8.44988 14.7003 8.78563 14.2861 8.78571H5.35742C4.94321 8.78571 4.60742 8.44992 4.60742 8.03571C4.60742 7.62149 4.94321 7.28571 5.35742 7.28571H14.2861Z"></path><path d="M18.8926 8.03584C18.8926 6.9708 18.029 6.10725 16.9639 6.10713C15.8988 6.10713 15.0352 6.97071 15.0352 8.03584C15.0352 9.10093 15.8989 9.96455 16.9639 9.96455C18.0289 9.96444 18.8925 9.10084 18.8926 8.03584ZM20.3926 8.03584C20.3925 9.92925 18.8573 11.4644 16.9639 11.4646C15.0704 11.4646 13.5352 9.9293 13.5352 8.03584C13.5352 6.14232 15.0703 4.60713 16.9639 4.60713C18.8574 4.60725 20.3926 6.14237 20.3926 8.03584Z"></path><path d="M19.6426 16.2143C20.0566 16.2145 20.3926 16.5502 20.3926 16.9643C20.3926 17.3784 20.0566 17.7141 19.6426 17.7143H14.2852C13.8709 17.7143 13.5352 17.3785 13.5352 16.9643C13.5352 16.5501 13.8709 16.2143 14.2852 16.2143H19.6426Z"></path><path d="M8.92871 16.2143C9.34292 16.2143 9.67871 16.5501 9.67871 16.9643C9.67871 17.3785 9.34292 17.7143 8.92871 17.7143H5.35742C4.94321 17.7143 4.60742 17.3785 4.60742 16.9643C4.60742 16.5501 4.94321 16.2143 5.35742 16.2143H8.92871Z"></path><path d="M13.5352 16.9644C13.5352 15.8993 12.6715 15.0358 11.6064 15.0357C10.5414 15.0357 9.67773 15.8992 9.67773 16.9644C9.67779 18.0294 10.5414 18.8931 11.6064 18.8931C12.6715 18.8931 13.5351 18.0294 13.5352 16.9644ZM15.0352 16.9644C15.0351 18.8579 13.4998 20.3931 11.6064 20.3931C9.71299 20.3931 8.17779 18.8579 8.17773 16.9644C8.17773 15.0708 9.71294 13.5357 11.6064 13.5357C13.4999 13.5358 15.0352 15.0708 15.0352 16.9644Z"></path></svg>