<svg xmlns="http://www.w3.org/2000/svg" width="25" height="25" viewBox="0 0 25 25" fill="#fff"><path d="M9.24414 6.17969C9.24403 5.87551 9.12436 5.58318 8.91113 5.36621L5.5293 1.98438L5.44336 1.9082C5.23499 1.74082 4.97462 1.64844 4.70508 1.64844C4.39727 1.6485 4.10196 1.76924 3.88184 1.98438L3.10742 2.77637L3.09863 2.78516C2.28976 3.58332 1.77952 4.63607 1.65527 5.76563C1.53139 6.89222 1.79849 8.02715 2.41113 8.98047C6.05325 14.346 10.6869 18.9664 16.0625 22.5938C17.0147 23.2039 18.1471 23.4693 19.2715 23.3457C20.401 23.2214 21.4538 22.7123 22.252 21.9033L22.2617 21.8936L23.0537 21.1182C23.2682 20.8981 23.3887 20.6032 23.3887 20.2959C23.3886 19.9881 23.2679 19.6927 23.0527 19.4727H23.0518L19.6523 16.1074C19.4354 15.8944 19.143 15.7754 18.8389 15.7754C18.5347 15.7755 18.2424 15.8942 18.0254 16.1074L18.0244 16.1094C17.5239 16.5987 16.8513 16.8721 16.1514 16.8721C15.4517 16.872 14.7797 16.5985 14.2793 16.1094L8.91602 10.7461V10.7451C8.66859 10.5001 8.47136 10.2089 8.33691 9.8877C8.20175 9.56462 8.13184 9.21743 8.13184 8.86719C8.13189 8.51712 8.20183 8.17057 8.33691 7.84766C8.47055 7.52835 8.66581 7.23821 8.91113 6.99414L8.9873 6.90918C9.15311 6.70368 9.24414 6.446 9.24414 6.17969ZM10.7441 6.17969C10.7441 6.87726 10.4704 7.54736 9.98145 8.04492L9.97266 8.05371C9.86482 8.16003 9.77917 8.28706 9.7207 8.42676C9.66236 8.56629 9.63189 8.71597 9.63184 8.86719C9.63184 9.01858 9.66228 9.1689 9.7207 9.30859C9.76455 9.41335 9.82417 9.51064 9.89648 9.59766L9.97266 9.68164L15.3281 15.0371L15.4141 15.1133C15.6223 15.2803 15.8822 15.372 16.1514 15.3721C16.4593 15.3721 16.7554 15.2522 16.9756 15.0371C17.4729 14.5489 18.1418 14.2755 18.8389 14.2754C19.5365 14.2754 20.2065 14.5491 20.7041 15.0381L20.7061 15.04L24.1172 18.415L24.126 18.4238H24.125C24.6143 18.9242 24.8886 19.5961 24.8887 20.2959C24.8887 20.9958 24.6143 21.6685 24.125 22.1689C24.1212 22.1728 24.1172 22.1769 24.1133 22.1807L23.3096 22.9668C22.2705 24.0152 20.9029 24.6755 19.4355 24.8369C17.9634 24.9988 16.4807 24.6486 15.2363 23.8457C15.2322 23.843 15.2278 23.8407 15.2236 23.8379C9.68723 20.102 4.91519 15.3422 1.16504 9.81543C1.1618 9.81065 1.15841 9.80564 1.15527 9.80078C0.35253 8.55638 0.00313447 7.07355 0.165039 5.60156C0.326969 4.12946 0.990757 2.75797 2.04492 1.71777L2.82129 0.923829L2.83301 0.91211C3.33343 0.422851 4.00525 0.148498 4.70508 0.148438C5.3176 0.148437 5.90928 0.357954 6.38281 0.738282L6.57813 0.91211L9.98145 4.31543C10.4702 4.81289 10.744 5.48229 10.7441 6.17969Z"></path></svg>