<svg xmlns="http://www.w3.org/2000/svg" width="25" height="25" viewBox="0 0 25 25" fill="#fff"><path d="M23.3569 4.91113C23.3569 4.33921 22.8938 3.8751 22.3218 3.875H2.6792C2.10719 3.875 1.64307 4.33913 1.64307 4.91113V20.0889C1.64307 20.6609 2.10719 21.125 2.6792 21.125H22.3218C22.8938 21.1249 23.3569 20.6608 23.3569 20.0889V4.91113ZM24.8569 20.0889C24.8569 21.4892 23.7222 22.6249 22.3218 22.625H2.6792C1.27877 22.625 0.143066 21.4893 0.143066 20.0889V4.91113C0.143066 3.5107 1.27877 2.375 2.6792 2.375H22.3218C23.7222 2.3751 24.8569 3.51073 24.8569 4.91113V20.0889Z"></path><path d="M23.6206 4.78685C23.9357 4.51799 24.4093 4.55573 24.6782 4.87083C24.9466 5.18589 24.909 5.65872 24.5942 5.92747L14.1303 14.8562L14.1235 14.862C13.6679 15.2416 13.0933 15.4489 12.5005 15.449C11.9076 15.449 11.3331 15.2416 10.8774 14.862L10.8706 14.8562L0.406703 5.92747C0.0916557 5.65866 0.0540151 5.18594 0.322719 4.87083C0.591528 4.55579 1.06426 4.51815 1.37936 4.78685L11.8374 13.7097L11.9096 13.7644C12.0823 13.8843 12.2885 13.949 12.5005 13.949C12.7124 13.9489 12.9185 13.8844 13.0913 13.7644L13.1626 13.7097L23.6206 4.78685Z"></path></svg>